<svg width="16" height="16" viewBox="0 0 16 16" fill="none" xmlns="http://www.w3.org/2000/svg">
<path fill-rule="evenodd" clip-rule="evenodd" d="M14.4714 4.86195C14.7317 5.1223 14.7317 5.54441 14.4714 5.80476L5.8047 14.4714C5.54435 14.7318 5.12224 14.7318 4.86189 14.4714C4.60154 14.2111 4.60154 13.789 4.86189 13.5286L13.5286 4.86195C13.7889 4.6016 14.211 4.6016 14.4714 4.86195ZM14.4714 9.52862C14.7317 9.78896 14.7317 10.2111 14.4714 10.4714L10.4714 14.4714C10.211 14.7318 9.7889 14.7318 9.52855 14.4714C9.2682 14.2111 9.2682 13.789 9.52855 13.5286L13.5286 9.52862C13.7889 9.26827 14.211 9.26827 14.4714 9.52862Z" fill="#8F8881"/>
</svg>
